<?xml version="1.0" encoding="UTF-8" standalone="no"?><svg version="1.1" id="svg1" width="1152.7344" height="1152.6699" viewBox="0 0 1152.7344 1152.6699" xml:space="preserve" xmlns="http://www.w3.org/2000/svg" xmlns:svg="http://www.w3.org/2000/svg"><defs id="defs1" /><g id="g1" style="display:inline" transform="translate(26386.538,11333.938)"><g id="g172" transform="translate(1272.8169,-312.71796)"><path style="fill:#5cd2de" d="m -27113.875,-9869.601 c -1.833,-0.7557 -4.77,-1.1019 -6.525,-0.7693 -1.756,0.3327 -5.056,0.059 -7.334,-0.6089 -2.277,-0.6675 -10.46,-1.4743 -18.183,-1.7928 -7.722,-0.3185 -17.55,-1.493 -21.839,-2.6101 -4.289,-1.1171 -8.242,-1.7562 -8.786,-1.4204 -0.543,0.3359 -4.215,-0.2278 -8.16,-1.2526 -3.945,-1.0249 -14.373,-3.4278 -23.173,-5.3398 -8.8,-1.9121 -19.3,-4.3951 -23.333,-5.5177 -18.034,-5.0195 -22.564,-6.3881 -31.334,-9.4665 -5.133,-1.802 -11.433,-3.8901 -14,-4.6404 -2.566,-0.7503 -5.236,-1.9084 -5.933,-2.5736 -0.697,-0.6651 -2.197,-1.2297 -3.333,-1.2546 -1.137,-0.025 -4.467,-1.2045 -7.4,-2.6214 -2.934,-1.4169 -5.761,-2.5966 -6.283,-2.6215 -0.522,-0.025 -5.322,-2.0743 -10.666,-4.5543 -5.345,-2.48 -13.018,-5.9249 -17.051,-7.6552 -11.496,-4.9322 -42.817,-21.2809 -46.476,-24.2591 -1.85,-1.5062 -5.45,-3.6985 -10.191,-6.2058 -1.467,-0.7757 -4.264,-2.4515 -6.216,-3.7239 -1.951,-1.2725 -6.451,-4.0592 -10,-6.1927 -5.999,-3.6074 -35.762,-25.9491 -47.687,-35.7964 -14.959,-12.353 -42.989,-38.083 -50.764,-46.597 -9.403,-10.299 -12.583,-14.006 -32.93,-38.394 -10.246,-12.28 -29.07,-37.317 -29.07,-38.664 0,-0.622 -1.65,-3.074 -3.666,-5.448 -2.017,-2.373 -4.867,-6.578 -6.334,-9.343 -1.466,-2.765 -6.053,-10.618 -10.191,-17.453 -21.805,-36.005 -43.696,-84.545 -53.108,-117.759 -0.623,-2.2 -1.751,-5.8 -2.505,-8 -0.755,-2.2 -2.347,-7.9 -3.539,-12.666 -1.191,-4.767 -3.03,-11.367 -4.085,-14.667 -1.055,-3.3 -1.908,-7.2 -1.895,-8.667 0.03,-2.801 -2.236,-13.759 -7.428,-36 -1.712,-7.333 -2.785,-14.926 -2.383,-16.874 0.402,-1.947 -0.19,-6.747 -1.314,-10.666 -1.124,-3.92 -2.026,-9.526 -2.005,-12.46 0.02,-2.933 0,-25.433 -0.05,-50 -0.09,-46.549 0.999,-62.034 6.564,-93.333 4.718,-26.538 6.691,-36.464 8.612,-43.333 1.025,-3.667 2.131,-8.167 2.459,-10 0.327,-1.834 1.222,-5.134 1.988,-7.334 0.766,-2.2 2.598,-8.2 4.072,-13.333 3.595,-12.523 6.823,-21.916 9.005,-26.206 0.99,-1.946 1.8,-4.761 1.8,-6.254 0,-1.494 0.528,-3.042 1.174,-3.441 0.645,-0.399 2.202,-3.884 3.461,-7.746 1.258,-3.861 3.815,-10.32 5.682,-14.353 17.163,-37.083 18.906,-40.63 23.458,-47.732 2.021,-3.152 4.247,-7.052 4.946,-8.666 0.7,-1.615 2.024,-4.113 2.943,-5.552 3.887,-6.09 8.416,-13.696 10.747,-18.05 1.374,-2.567 4.123,-6.767 6.109,-9.333 1.985,-2.567 6.534,-9.167 10.109,-14.667 19.452,-29.933 68.074,-83.314 99.371,-109.097 7.7,-6.344 17.719,-14.659 22.264,-18.478 7.153,-6.01 22.394,-16.898 29.525,-21.092 1.246,-0.733 4.342,-2.833 6.878,-4.666 2.536,-1.834 5.635,-3.934 6.885,-4.667 1.251,-0.733 6.964,-4.14 12.695,-7.57 21.034,-12.591 55.459,-30.213 72.42,-37.073 4.033,-1.631 8.533,-3.472 10,-4.09 1.467,-0.618 5.967,-2.412 10,-3.987 4.033,-1.574 8.833,-3.49 10.667,-4.257 1.833,-0.768 5.433,-1.872 8,-2.454 5.948,-1.348 16.731,-4.883 22.378,-7.335 2.408,-1.045 6.008,-1.922 8,-1.948 1.992,-0.03 5.122,-0.905 6.955,-1.953 1.833,-1.048 5.433,-1.948 8,-2 2.567,-0.05 6.167,-0.952 8,-2 1.833,-1.048 5.51,-1.927 8.17,-1.953 2.661,-0.02 6.992,-0.947 9.624,-2.047 2.633,-1.1 6.704,-2 9.048,-2 2.344,0 9.413,-0.908 15.71,-2.019 18.625,-3.285 38.843,-6.05 48.115,-6.582 12.259,-0.702 64.812,-0.619 72,0.114 3.3,0.337 15.3,1.502 26.666,2.589 19.025,1.82 29.966,3.359 51.334,7.223 4.4,0.796 11.073,1.961 14.829,2.59 3.756,0.628 8.067,1.804 9.579,2.614 1.512,0.809 4.439,1.475 6.504,1.479 2.065,0 5.29,0.81 7.166,1.789 1.877,0.98 5.848,2.17 8.824,2.646 2.976,0.476 7.141,1.768 9.255,2.87 2.113,1.102 5.043,2.027 6.509,2.056 3.011,0.06 14.5,3.92 18.913,6.356 1.601,0.885 4.001,1.628 5.333,1.651 1.332,0.02 3.586,0.923 5.009,2 1.424,1.077 3.9,1.958 5.504,1.958 1.603,0 3.662,0.9 4.575,2 0.913,1.1 3.013,2 4.666,2 1.654,0 3.705,0.841 4.558,1.869 0.854,1.028 3.109,2.26 5.013,2.738 6.781,1.702 41.087,19.434 63.947,33.054 7.699,4.586 15.019,8.939 16.267,9.672 1.249,0.733 4.346,2.833 6.882,4.667 2.536,1.833 5.656,3.933 6.933,4.666 1.277,0.734 4.89,3.122 8.028,5.307 57.21,39.838 105.54,88.364 146.638,147.232 4.913,7.037 10.913,16.009 13.333,19.938 2.421,3.929 5.442,8.729 6.715,10.667 1.272,1.938 2.896,4.844 3.609,6.458 0.712,1.614 2.853,5.403 4.757,8.419 8.33,13.196 33.987,67.08 33.987,71.379 0,0.884 0.9,2.354 2,3.267 1.1,0.913 2,3.018 2,4.677 0,1.66 2.018,8.636 4.485,15.503 7.339,20.433 7.733,21.622 8.793,26.487 0.559,2.566 1.636,6.166 2.393,8 0.757,1.833 2.371,8.133 3.587,14 1.217,5.866 3.034,14.266 4.04,18.666 2.492,10.905 7.019,38.091 9.437,56.667 2.378,18.266 2.958,99.05 0.795,110.667 -0.751,4.033 -1.737,11.833 -2.192,17.333 -1.04,12.584 -6.015,39.939 -12.243,67.333 -3.553,15.626 -12.57,44.814 -19.153,62 -1.545,4.034 -3.299,8.834 -3.899,10.667 -6.307,19.271 -37.357,80.174 -51.911,101.821 -1.906,2.836 -4.665,7.038 -6.132,9.338 -1.467,2.301 -6.879,9.881 -12.027,16.845 -5.148,6.964 -10.416,14.318 -11.705,16.34 -8.717,13.676 -60.267,67.434 -81.346,84.83 -22.889,18.8897 -64.38,49.4925 -67.103,49.4925 -0.369,0 -3.19,1.65 -6.267,3.6667 -7.945,5.2057 -10.119,6.5126 -16.885,10.151 -3.3,1.7744 -8.7,4.7762 -12,6.6708 -15.073,8.6531 -65.599,31.5115 -69.654,31.5115 -0.997,0 -2.383,0.5443 -3.08,1.2094 -0.696,0.6652 -3.366,1.8233 -5.933,2.5736 -2.567,0.7503 -8.867,2.8025 -14,4.5606 -22.756,7.7934 -68.284,19.2989 -85.938,21.7178 -9.109,1.248 -13.162,1.868 -18.062,2.763 -2.933,0.5357 -6.833,0.8967 -8.667,0.8021 -1.833,-0.095 -8.133,0.4663 -14,1.2465 -22.578,3.0023 -77.946,4.5494 -83.333,2.3285 z m 260.889,-363.424 c -0.489,-0.489 -1.289,-0.489 -1.778,0 -0.489,0.489 -0.09,0.889 0.889,0.889 0.978,0 1.378,-0.4 0.889,-0.889 z m 105.748,-98.875 c 0.07,-4.266 -4.651,-0.705 -5.007,3.775 -0.37,4.656 -0.37,4.656 2.303,1.323 1.471,-1.834 2.688,-4.128 2.704,-5.098 z m -172.931,-168.075 c 4.288,-4.288 -15.61,-19.217 -28.868,-21.66 -12.846,-2.367 -13.774,2.981 -2.777,16.009 6.484,7.682 26.11,11.186 31.645,5.651 z" id="path174" /><path style="fill:#e558ac" d="m -27131.875,-9871.5792 c -34.653,-3.6131 -51.774,-6.4111 -82,-13.4005 -28.226,-6.5269 -47.544,-12.6703 -85.333,-27.1366 -32.961,-12.618 -89.665,-44.0057 -118.667,-65.6862 -16.841,-12.5894 -37.515,-28.8885 -40,-31.5365 -1.1,-1.171 -4.1,-3.833 -6.667,-5.914 -6.742,-5.466 -36.843,-35.374 -44.666,-44.381 -3.667,-4.221 -8.823,-10.111 -11.458,-13.088 -14.467,-16.349 -40.5,-51.188 -49.876,-66.746 -1.466,-2.434 -6.779,-11.23 -11.805,-19.547 -8.688,-14.374 -34.195,-64.712 -34.195,-67.482 0,-0.719 -1.534,-4.777 -3.41,-9.019 -1.876,-4.242 -5.131,-12.888 -7.232,-19.214 -2.102,-6.326 -4.392,-12.981 -5.088,-14.787 -1.785,-4.629 -4.913,-15.124 -7.538,-25.285 -1.231,-4.767 -2.824,-10.58 -3.541,-12.918 -0.717,-2.338 -1.849,-7.438 -2.515,-11.333 -0.666,-3.896 -2.769,-14.283 -4.673,-23.083 -1.904,-8.8 -4,-20.8 -4.658,-26.666 -0.658,-5.867 -1.857,-16.667 -2.663,-24 -2.247,-20.436 -1.889,-87.614 0.588,-110.278 2.588,-23.677 9.5,-63.754 13.406,-77.722 1.025,-3.667 2.131,-8.167 2.459,-10 0.327,-1.834 1.222,-5.134 1.988,-7.334 0.766,-2.2 2.602,-8.2 4.079,-13.333 1.478,-5.133 4.258,-13.533 6.179,-18.667 1.92,-5.133 3.799,-10.533 4.174,-12 0.376,-1.466 1.486,-4.466 2.466,-6.666 0.981,-2.2 4.005,-9.4 6.721,-16 6.013,-14.614 21.476,-46.408 27.883,-57.334 2.58,-4.4 5.235,-9.2 5.9,-10.666 0.665,-1.467 2.768,-4.944 4.675,-7.726 1.907,-2.783 3.467,-5.396 3.467,-5.807 0,-0.764 0.85,-2.047 16.662,-25.134 25.419,-37.116 80.763,-97.779 102.793,-112.672 3.6,-2.433 9.545,-6.921 13.212,-9.973 10.145,-8.442 24.486,-19.355 25.436,-19.355 0.466,0 3.035,-1.65 5.71,-3.667 6.9,-5.201 9.24,-6.614 17.52,-10.581 4.034,-1.932 9.03,-4.917 11.103,-6.632 2.073,-1.716 4.809,-3.12 6.082,-3.12 1.272,0 3.601,-1.2 5.175,-2.667 1.574,-1.466 3.337,-2.67 3.918,-2.675 0.581,0 4.956,-2.097 9.722,-4.65 4.767,-2.553 9.567,-4.988 10.667,-5.41 1.1,-0.422 3.8,-1.589 6,-2.592 2.2,-1.002 5.5,-2.243 7.333,-2.756 1.834,-0.513 7.375,-2.958 12.315,-5.432 4.94,-2.475 13.34,-5.957 18.667,-7.739 5.327,-1.782 12.985,-4.535 17.018,-6.12 101.883,-40.016 244.269,-46.495 352.141,-16.022 32.043,9.051 71.617,23.065 86.526,30.64 4.033,2.05 9.733,4.489 12.667,5.421 2.933,0.932 10.343,4.013 16.465,6.848 6.123,2.835 11.423,5.154 11.777,5.154 1.832,0 31.43,17.817 47.758,28.747 47.485,31.79 83.077,64.104 119.68,108.658 16.975,20.662 21.147,26.32 34.848,47.262 7.197,11 14.223,21.625 15.612,23.612 1.389,1.987 2.526,4.009 2.526,4.492 0,0.484 2.032,4.259 4.516,8.388 7.574,12.593 19.88,37.271 27.347,54.841 3.896,9.167 7.92,18.259 8.943,20.206 1.024,1.946 1.861,4.427 1.861,5.513 0,1.087 2.018,7.594 4.485,14.461 7.339,20.433 7.733,21.622 8.793,26.487 0.559,2.566 1.636,6.166 2.393,8 0.757,1.833 2.379,8.133 3.604,14 1.226,5.866 3.089,14.566 4.141,19.333 14.14,64.065 15.787,151.08 4.001,211.333 -9.081,46.421 -15.94,71.887 -27.475,102 -1.545,4.034 -3.29,8.834 -3.879,10.667 -30.876,96.128 -129.673,214.621 -234.063,280.7252 -28.799,18.2369 -76.253,41.4271 -106.375,51.9845 -29.228,10.244 -37.47,12.7319 -66.292,20.0106 -49.565,12.5173 -129.377,18.3784 -179.333,13.1695 z m 80.667,-37.9074 c 83.067,-5.0104 175.128,-33.3584 240.929,-74.1886 24.731,-15.3458 30.757,-19.4368 49.071,-33.3098 53.584,-40.593 101.413,-91.801 133.08,-142.484 2.749,-4.4 7.437,-11.9 10.418,-16.667 17.106,-27.355 44.583,-88.946 51.154,-114.666 1.218,-4.767 4.206,-15.567 6.641,-24 4.938,-17.106 11.599,-50.689 14.279,-72 2.26,-17.969 2.331,-106.024 0.1,-123.786 -4.929,-39.24 -16.288,-88.405 -27.619,-119.548 -4.86,-13.359 -7.077,-18.602 -18.884,-44.666 -36.761,-81.157 -97.945,-156.811 -168.503,-208.358 -7.7,-5.625 -15.8,-11.674 -18,-13.441 -2.2,-1.767 -7,-5 -10.666,-7.185 -3.667,-2.185 -11.767,-7.128 -18,-10.985 -44.259,-27.38 -116.608,-55.98 -162,-64.038 -5.134,-0.911 -15.634,-3.041 -23.334,-4.733 -37.018,-8.133 -125.598,-9.407 -167.333,-2.406 -35.19,5.902 -75.113,15.722 -96.667,23.776 -3.3,1.233 -9.456,3.381 -13.681,4.773 -4.224,1.392 -11.124,4.117 -15.333,6.054 -4.209,1.937 -9.752,4.295 -12.319,5.24 -5.607,2.065 -30.529,13.983 -38,18.172 -85.749,48.077 -144.153,101.066 -197.288,178.996 -15.222,22.326 -47.379,81.786 -47.379,87.608 0,0.705 -1.528,4.299 -3.397,7.986 -15.925,31.426 -34.377,109.558 -38.019,160.98 -5.882,83.069 9.036,181.188 36.832,242.25 1.675,3.68 4.274,9.808 5.777,13.619 7.847,19.91 30.47,60.704 48.261,87.025 108,159.7846 291.133,251.367 479.88,239.9824 z m -66.208,-13.3843 c -21.772,-1.0614 -61.911,-6.9578 -81.792,-12.0155 -20.331,-5.1718 -39.06,-10.4933 -51.69,-14.6866 -23.326,-7.7446 -72.31,-29.841 -72.31,-32.6186 0,-2.0372 11.408,-29.6374 18.715,-45.2774 3.083,-6.6 8.764,-19.2 12.625,-28 21.624,-49.29 27.37,-62.006 29.876,-66.118 3.422,-5.613 3.53,-9.46 0.345,-12.342 -3.402,-3.079 -6.555,-2.75 -7.598,0.793 -0.486,1.65 -3.917,9.6 -7.625,17.667 -3.708,8.067 -9.876,21.867 -13.705,30.667 -23.579,54.179 -42.364,94.5973 -44.611,95.986 -8.793,5.4341 -137.356,-95.608 -137.356,-107.953 0,-1.032 4.65,-6.81 10.334,-12.84 42.262,-44.844 76.199,-79.134 79.504,-80.333 2.033,-0.737 2.358,-1.802 1.731,-5.67 -1.114,-6.86 -3.109,-8.892 -6.709,-6.829 -3.463,1.984 -100.332,2.923 -136.86,1.325 l -23.333,-1.02 -7.822,-15.733 c -9.815,-19.741 -19.322,-17.653 78.6,-17.263 l 84.555,0.338 v -4.562 c 0,-7.321 -0.972,-8.697 -5.275,-7.463 -16.785,4.814 -170.726,0.683 -173.285,-4.65 -28.255,-58.889 -44.679,-168.705 -36.716,-245.494 26.288,-253.49 210.298,-441.228 467.276,-476.746 97.452,-13.469 235.035,15.853 321.334,68.482 76.729,46.794 131.734,98.82 176.604,167.04 93.757,142.548 112.663,333.297 48.192,486.244 -2.673,6.343 -11.724,6.814 -119.803,6.234 -79.674,-0.427 -79.674,-0.427 -81.095,3.88 -2.455,7.442 -6.539,7.153 95.432,6.743 110.62,-0.446 103.336,-2.919 83.838,28.467 -3.754,6.043 -27.689,7.355 -110.34,6.046 l -51.837,-0.82 -7.274,-8.038 c -8.426,-9.311 -10.263,-9.797 -12.412,-3.288 -1.316,3.99 -1.226,5.127 0.564,7.105 2.936,3.244 2.679,4.145 -1.182,4.145 -4.419,0 -12.081,6.85 -10.952,9.792 0.714,1.859 3.036,2.208 14.707,2.208 13.859,0 13.859,0 20.326,7 3.557,3.85 20.344,21.4 37.305,39 37.77,39.194 43.26,45.181 43.26,47.177 0,4.501 -48.656,49.16 -77.785,71.395 -15.382,11.741 -57.798,38.0945 -61.313,38.0945 -2.088,0 -38.221,-81.0505 -73.669,-165.2455 -6.788,-16.122 -6.389,-15.603 -12.9,-16.799 -6.452,-1.186 -6.443,-1.094 1.839,17.787 3.761,8.575 8.797,20.391 11.19,26.258 4.176,10.235 11.721,27.685 32.573,75.333 19.453,44.451 21.355,48.857 25.334,58.6665 2.23,5.5 4.057,10.1446 4.06,10.3212 0.01,0.719 -26.887,13.7316 -39.329,19.0274 -52.523,22.3549 -122.293,37.9738 -174,38.9522 l -19.333,0.3659 -0.354,-39.9536 c -0.382,-43.2036 -0.641,-44.6906 -6.441,-37.1079 -3.872,5.0615 -3.872,5.0615 -4.539,41.0615 -0.666,36 -0.666,36 -4,36.1575 -1.833,0.087 -13.026,-0.3151 -24.874,-0.8926 z m 45.088,-107.2571 c 20.67,-28.349 32.634,-55.768 39.216,-89.872 4.36,-22.587 4.489,-22.561 17.386,3.523 10.168,20.565 10.377,20.625 14.032,4.018 4.937,-22.438 3.207,-46.668 -6.164,-86.343 -7.555,-31.987 1.176,-46.522 27.983,-46.581 29.948,-0.07 70.794,36.256 63.607,56.56 -3.987,11.263 -3.213,11.721 18.726,11.083 18.697,-0.543 19.053,-0.363 13.664,6.942 -10.136,13.739 29.602,3.859 51.68,-12.849 15.69,-11.873 30.466,-34.568 25.645,-39.389 -0.373,-0.373 -4.123,0.488 -8.333,1.913 -31.878,10.789 -50.195,2.182 -94.058,-44.198 -17.745,-18.763 -37.714,-39.557 -44.374,-46.208 -19.802,-19.774 -27.992,-47.792 -17.013,-58.198 35.013,-33.185 69.186,-35.344 115.512,-7.3 58.131,35.192 104.455,41.535 131.104,17.953 2.845,-2.518 7.387,-5.913 10.092,-7.545 12,-7.239 27.748,-31.768 27.748,-43.222 0,-7.567 -4.232,-11.649 -22.199,-21.411 -12.723,-6.912 -23.264,-12.866 -40.468,-22.859 -4.033,-2.342 -15.133,-8.779 -24.666,-14.303 -54.775,-31.74 -50.329,-27.3 -49.361,-49.294 l 0.802,-18.239 -11.319,-16.79 c -24.567,-36.441 -45.827,-60.955 -69.456,-80.087 -11.439,-9.263 -11.388,-9.175 -9.893,-17.176 5.182,-27.739 7.05,-94.131 3.249,-115.469 -1.11,-6.233 -2.02,-11.783 -2.021,-12.333 0,-3.433 -5.057,0.714 -15.43,12.666 -30.88,35.583 -74.656,75.44 -81.159,73.895 -36.894,-8.769 -33.659,-6.351 -38.142,-28.511 -4.051,-20.027 -13.879,-66.788 -19.1,-90.875 -4.927,-22.731 -3.317,-23.224 -38.279,11.724 -35.157,35.144 -53.996,60.348 -73.327,98.101 -8.453,16.508 -9.173,17.097 -24.544,20.038 -16.983,3.249 -40.475,3.768 -64.373,1.423 -11.928,-1.17 -22.278,-2.128 -23,-2.128 -4.693,0 2.831,9.17 21.784,26.55 4.271,3.916 7.271,7.569 6.667,8.118 -1.652,1.5 -22.551,7.308 -60.432,16.792 -50.343,12.605 -50.31,11.172 -0.7,29.966 16.295,6.173 16.183,5.825 4.364,13.588 -49.601,32.579 -83.496,62.359 -122.18,107.349 -13.088,15.221 -12.65,15.823 8.078,11.113 65.405,-14.863 59.858,-15.097 49.028,2.069 -33.173,52.585 -53.718,99.882 -69.176,159.245 -8.035,30.86 -8.315,30.311 8.487,16.658 6.691,-5.437 16.951,-13.332 22.799,-17.546 14.98,-10.792 31.012,-21.902 31.604,-21.902 0.276,0 0.497,13.95 0.492,31 0,17.859 0.684,35.521 1.627,41.667 2.99,19.493 11.092,53.172 15.717,65.333 23.361,61.429 25.985,64.408 33.184,37.686 7.054,-26.181 21.802,-66.428 24.296,-66.299 0.576,0.03 3.592,5.28 6.702,11.667 20.043,41.162 58.239,81.898 107.7,114.864 24.09,16.056 24.665,15.993 18.134,-1.996 -3.664,-10.094 -10.197,-43.721 -9.264,-47.689 0.529,-2.252 35.31,26.104 50.866,41.47 21.415,21.153 36.86,47.247 48.162,81.369 3.234,9.764 4.615,9.03 18.294,-9.731 z m -3.201,-35.687 c 1.752,-45.91 -9.286,-87.82 -34.304,-130.253 -23.441,-39.756 -36.042,-67.886 -36.042,-80.455 0,-10.541 25.209,-23.611 50.517,-26.192 14.311,-1.459 14.11,-2.032 3.098,8.798 -10.86,10.682 -16.928,19.724 -19.765,29.454 -3.248,11.141 -2.31,11.999 6.15,5.625 32.514,-24.495 82.672,-26.14 118.557,-3.89 4.785,2.966 3.982,5.192 -1.89,5.24 -1.467,0.01 -6.273,1.727 -10.679,3.811 -21.328,10.09 -27.63,30.573 -18.937,61.541 4.348,15.488 7.903,38.734 7.355,48.097 l -0.406,6.941 -6.667,-9.694 c -16.4,-23.85 -20.853,-24.219 -22.917,-1.901 -3.548,38.375 -12.409,67.471 -28.286,92.891 -6.464,10.347 -6.555,10.188 -5.784,-10.013 z m -21.726,0.01 c -15.084,-27.039 -27.457,-41.125 -60.01,-68.318 -8.769,-7.325 -22.362,-18.875 -30.208,-25.667 -19.159,-16.587 -18.266,-17.258 -15.619,11.741 1.831,20.068 1.45,20.983 -4.371,10.488 -22.426,-40.43 -38.15,-111.46 -40.501,-182.959 -0.667,-20.271 -1.402,-28.906 -2.433,-28.577 -10.556,3.369 -66.321,100.798 -83.543,145.958 -8.504,22.301 -8.615,22.388 -9.746,7.667 -5.06,-65.832 15.159,-146.38 59.304,-236.246 20.262,-41.247 20.387,-39.586 -1.968,-26.169 -49.007,29.415 -89.954,65.706 -128.744,114.105 -19.99,24.942 -20.159,25.062 -16.089,11.42 14.765,-49.489 34.863,-90.368 69.56,-141.483 19.287,-28.416 19.402,-28.298 -18.252,-18.798 -15.51,3.912 -34.219,7.397 -35.083,6.533 -5.325,-5.326 68.118,-67.126 113.746,-95.714 13.151,-8.24 23.866,-15.581 23.812,-16.315 -0.109,-1.465 -1.162,-1.86 -26.808,-10.065 -19.277,-6.167 -20.464,-7.091 -12,-9.333 3.116,-0.826 12.866,-3.512 21.666,-5.968 8.8,-2.456 24.7,-6.635 35.334,-9.287 29.2,-7.28 29.333,-7.322 29.333,-9.221 0,-0.974 -2.55,-3.446 -5.667,-5.493 -21.69,-14.242 -24.23,-17.837 -12,-16.978 4.95,0.347 18.677,-0.333 30.504,-1.512 26.893,-2.68 24.978,-2.748 23.963,0.857 -8.711,30.937 -12.795,54.671 -12.677,73.667 0.143,22.958 3.526,32.186 5.622,15.333 9.491,-76.314 29.434,-123.697 77.443,-184 10.39,-13.051 43.485,-45.889 44.797,-44.45 1.268,1.39 14.635,62.667 24.822,113.784 2.703,13.566 6.178,30.966 7.721,38.666 4.417,22.041 7.148,16.29 7.81,-16.445 0.381,-18.831 -0.691,-18.273 22.274,-11.597 26.115,7.592 52.185,20.079 79.388,38.022 39.532,26.077 57.041,44.203 94.437,97.768 l 7.737,11.082 -1.468,17.298 c -1.945,22.912 2.71,28.342 43.294,50.501 19.245,10.508 52.628,31.021 52.038,31.976 -0.355,0.575 -2.909,1.407 -5.675,1.85 -7.841,1.255 -18.847,7.324 -21.067,11.617 -7.586,14.67 8.173,40.496 23.165,37.963 6.063,-1.024 12.205,14.965 7.216,18.784 -19.367,14.826 -73.002,3.706 -113.677,-23.567 -44.596,-29.903 -77.717,-28.477 -123.131,5.3 -25.994,19.333 -47.56,47.223 -23.951,30.975 l 11.749,-8.086 0.798,9.613 c 1.581,19.019 3.468,22.562 23.407,43.939 8.687,9.314 25.463,27.301 37.279,39.971 48.32,51.81 58.063,58.262 88.104,58.346 13.666,0.04 6.386,9.843 -15.929,21.453 -11.962,6.223 -13.039,6.064 -9.659,-1.429 3.032,-6.726 2.317,-7.409 -5.616,-5.364 -3.511,0.905 -12.834,1.967 -20.718,2.36 l -14.333,0.715 v -5.768 c 0,-15.021 -23.264,-39.536 -66.051,-69.606 -31.471,-22.117 -69.315,-30.686 -102.319,-23.168 -5.703,1.299 -11.046,2.136 -11.872,1.861 -2.392,-0.797 11.511,-10.313 24.763,-16.948 13.598,-6.81 14.199,-8.028 5.137,-10.416 -23.548,-6.206 -54.099,-2.659 -83.479,9.691 -13.254,5.572 23.188,-43.336 44.472,-59.683 16.143,-12.4 -45.187,-3.174 -76.441,11.498 -7.218,3.388 -13.348,6.161 -13.622,6.161 -5.397,0 22.194,-43.795 39.367,-62.488 7.358,-8.01 13.378,-15.011 13.378,-15.56 0,-4.049 -60.69,3.312 -99.666,12.09 -3.856,0.868 -3.836,-1.612 0.05,-6.183 9.12,-10.733 43.594,-51.75 47.218,-56.182 2.346,-2.869 12.741,-14.244 23.1,-25.279 20.967,-22.335 21.285,-23.471 5.519,-19.705 -36.14,8.632 -69.491,10.516 -49.219,2.78 32.097,-12.247 81.669,-45.704 108.671,-73.343 11.51,-11.782 11.536,-13.252 0.09,-4.959 -4.633,3.355 -13.305,9.638 -19.272,13.962 -11.199,8.115 -44.214,29.014 -48.22,30.524 -1.246,0.469 -5.786,2.909 -10.089,5.421 -10.508,6.134 -46.488,22.128 -62.176,27.638 -27.197,9.552 -27.305,9.764 -7.281,14.193 13.867,3.067 51.631,4.347 61.771,2.093 5.349,-1.189 3.695,1.479 -11.708,18.885 -4.812,5.438 -11.756,13.604 -15.432,18.146 -3.676,4.543 -14.498,17.494 -24.049,28.78 -30.355,35.867 -37.904,46.529 -31.634,44.678 24.443,-7.216 90.034,-20.824 100.369,-20.824 3.93,0 3.349,1.388 -5.086,12.152 -12.333,15.737 -23.988,37.711 -33.659,63.456 -8.262,21.996 -8.088,22.215 8.709,11.002 31.328,-20.915 79.982,-37.872 65.762,-22.919 -11.891,12.502 -25.98,38.74 -30.342,56.507 -5.117,20.837 1.111,39.246 30.577,90.387 31.094,53.964 44.291,103.898 37.814,143.081 -1.192,7.215 -2.065,6.496 -10.524,-8.666 z m 208.034,-398.415 c 23.701,-8.382 29.034,-8.453 51.934,-0.685 25.023,8.489 26.106,6.756 4.079,-6.523 -22.605,-13.627 -37.179,-12.566 -65.434,4.761 -18.548,11.374 -16.975,11.783 9.421,2.447 z m 16.872,-30.689 c 3.744,-2.003 10.472,-16.797 10.473,-23.028 0,-7.738 -3.526,-13.745 -15.253,-25.974 -11.866,-12.374 -17.952,-16.948 -13.43,-10.093 15.447,23.414 17.995,30.423 15.828,43.532 -1.776,10.745 -20.698,6.457 -34.066,-7.719 -32.728,-34.706 -37.429,-37.687 -65.268,-41.4 -28.485,-3.799 -30.875,-1.087 -5.286,5.997 26.716,7.396 38.215,14.644 58.809,37.072 17.232,18.766 21.359,21.489 33.426,22.055 5.449,0.256 10.397,0.584 10.995,0.73 0.598,0.146 2.296,-0.382 3.772,-1.172 z m -47.82,-5.069 c 4.288,-4.288 -15.61,-19.217 -28.868,-21.66 -12.846,-2.367 -13.774,2.981 -2.777,16.009 6.484,7.682 26.11,11.186 31.645,5.651 z m -222.792,-90.744 c 6.434,-9.585 28.463,-33.855 36.678,-40.41 8.223,-6.561 8.433,-7.675 3.054,-16.158 -2.211,-3.486 -5.798,-9.86 -7.97,-14.164 -6.896,-13.66 -8.885,-9.588 -4.574,9.364 2.712,11.923 3.341,10.593 -11.964,25.285 l -13.196,12.666 0.803,-15.333 c 1.862,-35.55 19.827,-85.544 46.692,-129.936 4.629,-7.648 5.295,-9.958 2.345,-8.135 -3.241,2.003 -29.449,36.38 -29.449,38.628 0,0.409 -3.014,6 -6.697,12.424 -19.964,34.817 -29.301,86.391 -23.057,127.352 0.996,6.539 2.032,6.316 7.335,-1.583 z m -74.247,468.485 c -42.468,-31.995 -86.667,-91.081 -86.667,-115.855 0,-9.192 39.514,-79.74 43.339,-77.377 0.528,0.327 1.381,7.66 1.894,16.296 3.501,58.906 18.449,115.831 43.594,166.014 10.219,20.395 10.245,20.268 -2.16,10.922 z m -140.173,-70.568 c -6.983,-16.406 -15.346,-50.253 -17.79,-72 -2.014,-17.921 -1.651,-46.999 0.837,-66.973 2.937,-23.582 4.018,-23.373 -25.123,-4.869 -17.742,11.265 -21.576,13.119 -18.28,8.842 24.606,-31.942 72.507,-76.792 106.48,-99.7 16.353,-11.026 16.582,-10.86 8.719,6.295 -26.446,57.691 -36.009,87.178 -44.71,137.864 -3.313,19.296 -4.406,30.904 -5.697,60.541 -1.598,36.666 -1.598,36.666 -4.436,30 z m 630.892,-186.334 c -0.995,-2.384 -1.52,-5.85 -1.166,-7.704 0.438,-2.289 -0.226,-4.158 -2.069,-5.825 -2.691,-2.436 -4.141,-2.441 -13.864,-0.05 -6.07,1.49 -14.287,-8.787 -14.287,-17.867 0,-16.451 58.341,-13.909 59.734,2.603 1.137,13.476 -24.057,39.114 -28.348,28.847 z m -214.144,-280.067 c -7.734,-4.546 -21.969,-12.166 -31.635,-16.933 -9.666,-4.766 -17.431,-8.986 -17.257,-9.377 0.174,-0.391 7.217,-6.964 15.65,-14.607 8.433,-7.643 23.705,-22.152 33.937,-32.241 10.232,-10.09 18.932,-18.016 19.333,-17.615 3.545,3.55 -0.988,89.282 -5.151,97.44 -0.554,1.085 -5.338,-1.059 -14.877,-6.667 z m 13.781,471.401 c 5.192,-5.762 4.447,-8.99 -4.36,-18.9 -14.084,-15.846 -18.57,-17.23 -12.811,-3.952 4.561,10.517 6.353,9.809 -25.629,10.115 -15.156,0.145 -28.006,0.295 -28.556,0.334 -1.459,0.101 -1.223,5.162 0.38,8.157 1.304,2.437 3.1,2.579 32.708,2.579 26.618,0 31.444,0.301 32.096,2 1.024,2.667 3.593,2.528 6.172,-0.333 z m -381.69,-3.088 c 0,-2.66 -2.754,-6.579 -4.623,-6.579 -2.105,0 -3.985,4.604 -2.717,6.655 1.109,1.794 7.34,1.73 7.34,-0.08 z m 490,-35.873 c 7.178,-1.657 11.899,-7.276 15.384,-18.313 2.98,-9.434 5.066,-25.726 3.294,-25.726 -0.561,0 -5.033,3.75 -9.938,8.333 -4.905,4.583 -12.018,10.133 -15.808,12.333 -6.953,4.037 -15.433,19.286 -12.955,23.296 1.046,1.692 12.827,1.737 20.023,0.08 z m -30.731,-3.499 c 5.459,-5.459 10.8,-20.588 12.076,-34.207 1.276,-13.612 -0.177,-13.972 -10.666,-2.643 -4.706,5.082 -12.784,12.103 -17.951,15.601 -10.535,7.133 -11.085,8.515 -5.405,13.576 10.066,8.969 17.909,11.711 21.946,7.673 z m 22.065,-26.462 c 0,-0.323 -0.693,-1.016 -1.54,-1.539 -0.953,-0.59 -1.177,-0.366 -0.588,0.588 0.95,1.537 2.128,2.063 2.128,0.951 z m -31.524,-11.671 c 1.115,-1.778 0.543,-3.48 -2.688,-8 -6.662,-9.319 -10.855,-18.696 -18.986,-42.456 -8.847,-25.851 -9.293,-22.636 5.394,-38.827 11.484,-12.659 12.242,-14.556 6.806,-17.033 -3.581,-1.631 -3.944,-1.375 -15.87,11.208 l -12.205,12.877 -6.753,-3.421 c -9.907,-5.021 -14.295,-4.27 -8.012,1.371 8.314,7.466 17.336,25.325 23.836,47.187 8.118,27.299 22.707,46.303 28.478,37.094 z m 38.589,-34.374 c 26.807,-17 34.343,-35.522 16.935,-41.617 -17.397,-6.091 -16.311,-6.615 -18.256,8.797 -0.917,7.268 -3.185,17.77 -5.039,23.338 -5.103,15.322 -4.43,16.325 6.36,9.482 z m 54.997,-1.413 c 15.519,-11.464 32.575,-41.319 20.926,-36.629 -1.277,0.514 -7.297,1.263 -13.377,1.663 -12.815,0.844 -12.967,0.997 -13.459,13.52 -0.184,4.679 -1.464,12.135 -2.844,16.568 -3.776,12.134 -2.232,12.994 8.754,4.878 z m -139.412,-4.954 c -0.161,-23.749 -25.27,-54.042 -46.375,-55.951 -13.33,-1.206 -18.8,6.337 -5.99,8.258 16.491,2.473 33.873,18.093 45.8,41.157 4.598,8.892 6.595,10.88 6.565,6.536 z m -582.199,196.6 c -14.186,-14.97 -52.451,-70.003 -52.451,-75.434 0,-1.804 23.534,-2.283 88.433,-1.8 31.498,0.234 48.944,0.836 48.663,1.679 -0.682,2.045 -74.314,78.466 -76.975,79.89 -1.887,1.01 -3.433,0.136 -7.67,-4.335 z m 770.015,-25.25 c -42.3,-43.98 -47.8,-49.799 -47.8,-50.571 0,-1.106 100.33,-2.363 119.667,-1.499 9.852,0.44 17.667,1.356 17.667,2.07 0,7.463 -53.397,80.984 -58.817,80.984 -0.504,0 -14.327,-13.943 -30.717,-30.984 z" id="path173" /><path style="fill:#141e4b" d="m -27112.722,-9872.149 c -1.2,-0.7049 -4.5,-1.2347 -7.334,-1.1772 -2.834,0.057 -8.152,-0.337 -11.819,-0.8767 -3.667,-0.5396 -9.384,-0.8855 -12.705,-0.7686 -3.321,0.1168 -11.121,-0.7101 -17.333,-1.8378 -6.213,-1.1276 -14.014,-2.3133 -17.338,-2.6348 -3.323,-0.3215 -8.123,-1.4399 -10.666,-2.4853 -2.544,-1.0454 -7.325,-2.2229 -10.625,-2.6168 -3.3,-0.3939 -7.685,-1.3614 -9.746,-2.1501 -2.06,-0.7886 -5.874,-1.6978 -8.475,-2.0204 -2.601,-0.3226 -7.515,-1.4991 -10.92,-2.6146 -3.406,-1.1154 -10.692,-3.1947 -16.192,-4.6206 -12.027,-3.1178 -29.987,-9.1306 -34.872,-11.6745 -1.947,-1.0135 -4.552,-1.8427 -5.79,-1.8427 -1.238,0 -3.776,-1.2 -5.641,-2.6667 -1.864,-1.4667 -4.207,-2.6667 -5.207,-2.6667 -0.999,0 -5.568,-1.7122 -10.153,-3.805 -4.585,-2.0927 -13.137,-5.7997 -19.004,-8.2377 -5.866,-2.438 -11.329,-4.927 -12.14,-5.5311 -1.371,-1.0226 -9.136,-5.2472 -18.526,-10.0798 -2.2,-1.1322 -4.9,-2.5747 -6,-3.2056 -1.1,-0.631 -3.35,-1.7309 -5,-2.4443 -1.65,-0.7134 -3,-1.9006 -3,-2.6381 0,-0.7375 -1.5,-1.7174 -3.334,-2.1775 -1.833,-0.4602 -3.333,-1.3864 -3.333,-2.0584 0,-0.672 -1.5,-1.7921 -3.333,-2.4891 -1.834,-0.6971 -3.334,-1.8822 -3.334,-2.6337 0,-0.7515 -1.5,-1.3663 -3.333,-1.3663 -1.833,0 -3.333,-0.5089 -3.333,-1.1309 0,-0.6219 -2.535,-2.2719 -5.632,-3.6666 -5.233,-2.3565 -15.763,-9.9382 -20.856,-15.0172 -2.032,-2.0263 -23.282,-18.5468 -32.173,-25.0122 -2.138,-1.555 -5.467,-4.705 -7.398,-7 -1.932,-2.295 -4.166,-4.173 -4.967,-4.173 -0.8,0 -3.969,-2.7 -7.042,-6 -3.073,-3.3 -5.827,-6 -6.12,-6 -1.481,0 -26.479,-25.865 -26.479,-27.397 0,-0.982 -1.265,-2.671 -2.811,-3.754 -1.546,-1.083 -2.433,-2.581 -1.971,-3.329 1.172,-1.897 -6.976,-10.862 -9.124,-10.039 -1.717,0.66 -11.384,-11.079 -11.932,-14.489 -0.531,-3.307 -5.229,-9.169 -6.152,-7.675 -0.624,1.01 -1.461,0.815 -2.65,-0.618 -1.473,-1.775 -1.405,-1.966 0.451,-1.254 3.283,1.26 2.67,-0.573 -2.219,-6.641 -121.965,-151.359 -147.603,-388.539 -62.03,-573.83 16.143,-34.954 40.852,-77.333 58.873,-100.974 45.443,-59.616 91.304,-102.947 148.133,-139.961 16.537,-10.771 47.525,-28.706 49.6,-28.706 0.414,0 2.346,-1.11 4.293,-2.467 4.01,-2.796 25.941,-12.96 42.872,-19.87 142.564,-58.177 312.177,-54.47 449.136,9.818 6.858,3.219 12.75,5.853 13.094,5.853 0.344,0 10.34,5.327 22.214,11.838 83.266,45.659 150.801,107.56 203.319,186.355 11.585,17.382 12.459,18.844 24.594,41.14 4.391,8.067 8.438,15.267 8.995,16 1.826,2.407 19.668,43.694 25.065,58 11.768,31.193 23.511,75.222 27.562,103.333 1.162,8.067 2.37,15.567 2.684,16.667 2.696,9.442 5.213,47.31 5.184,78 -0.07,79.79 -17.623,162.081 -48.765,228.667 -11.466,24.517 -24.627,50.272 -28.795,56.35 -5.307,7.739 -7.338,12.632 -5.498,13.246 0.772,0.257 0.408,2.271 -0.875,4.843 -1.283,2.57 -2.919,4.127 -3.93,3.739 -2.302,-0.883 -4.201,1.361 -17.782,21.017 -6.344,9.182 -14.517,20.436 -18.161,25.009 -3.644,4.573 -5.894,7.862 -5,7.309 3.953,-2.443 1.234,4.469 -3.041,7.729 -2.566,1.958 -4.666,4.123 -4.666,4.81 0,1.76 -4.328,6.614 -5.897,6.614 -0.717,0 -0.583,-0.72 0.297,-1.6 2.734,-2.734 1.753,-4.285 -1.086,-1.716 -1.663,1.505 -2.39,3.36 -1.91,4.873 0.527,1.659 0.105,2.443 -1.315,2.443 -1.149,0 -2.116,1.05 -2.149,2.334 -0.03,1.283 -3.152,5.033 -6.931,8.333 -3.908,3.412 -6.473,4.957 -5.95,3.583 0.848,-2.225 0.63,-2.206 -2.736,0.236 -5.58,4.049 -24.942,23.996 -25.106,25.865 -0.08,0.907 -0.236,2.384 -0.348,3.282 -0.111,0.897 -1.853,2.485 -3.87,3.529 -2.017,1.043 -5.836,3.908 -8.485,6.367 -6.847,6.355 -13.706,12.1447 -17.142,14.4712 -1.625,1.1 -4.043,2.9 -5.372,4 -1.33,1.1 -3.73,2.9 -5.334,4 -3.572,2.4505 -7.996,5.9585 -10.666,8.4571 -1.1,1.0294 -3.35,2.2881 -5,2.7971 -1.65,0.509 -3,1.3476 -3,1.8635 0,0.5159 -2.7,2.4129 -6,4.2156 -3.3,1.8027 -6,3.7402 -6,4.3055 0,0.5653 -1.107,1.0279 -2.46,1.0279 -1.353,0 -3.497,1.1451 -4.763,2.5448 -1.267,1.3996 -4.21,3.3039 -6.54,4.2316 -2.331,0.9278 -5.311,2.7826 -6.623,4.1219 -1.312,1.3392 -3.532,2.435 -4.933,2.435 -1.402,0 -3.029,0.75 -3.615,1.6667 -1.41,2.2039 -8.934,6.3333 -11.539,6.3333 -1.134,0 -2.541,0.7964 -3.128,1.7697 -1.188,1.972 -39.546,20.897 -42.354,20.897 -0.423,0 -4.506,1.7128 -9.073,3.8063 -8.668,3.9725 -14.883,6.3291 -21.639,8.2054 -2.2,0.611 -8.2,2.6456 -13.333,4.5214 -5.134,1.8758 -10.386,3.4233 -11.672,3.4387 -1.286,0.016 -4.498,1.1856 -7.137,2.6003 -2.64,1.4147 -5.532,2.2909 -6.428,1.9471 -0.896,-0.3438 -4.488,0.6007 -7.983,2.0988 -3.495,1.4981 -6.837,2.4259 -7.426,2.0619 -0.589,-0.364 -3.684,0.2986 -6.879,1.4726 -3.195,1.1739 -7.309,2.3288 -9.142,2.5665 -11.668,1.5127 -15.831,2.248 -19.78,3.4933 -2.445,0.7712 -6.045,1.5771 -8,1.7908 -1.954,0.2137 -8.844,1.3778 -15.311,2.587 -6.467,1.2091 -12.767,1.8851 -14,1.5022 -1.233,-0.3829 -6.742,-0.1326 -12.242,0.5563 -25.023,3.134 -77.786,4.8632 -81.514,2.6715 z m 61.514,-37.3376 c 83.067,-5.0104 175.128,-33.3584 240.929,-74.1886 24.731,-15.3458 30.757,-19.4368 49.071,-33.3098 53.584,-40.593 101.413,-91.801 133.08,-142.484 2.749,-4.4 7.437,-11.9 10.418,-16.667 17.106,-27.355 44.583,-88.946 51.154,-114.666 1.218,-4.767 4.206,-15.567 6.641,-24 4.938,-17.106 11.599,-50.689 14.279,-72 2.26,-17.969 2.331,-106.024 0.1,-123.786 -4.929,-39.24 -16.288,-88.405 -27.619,-119.548 -4.86,-13.359 -7.077,-18.602 -18.884,-44.666 -36.761,-81.157 -97.945,-156.811 -168.503,-208.358 -7.7,-5.625 -15.8,-11.674 -18,-13.441 -2.2,-1.767 -7,-5 -10.666,-7.185 -3.667,-2.185 -11.767,-7.128 -18,-10.985 -44.259,-27.38 -116.608,-55.98 -162,-64.038 -5.134,-0.911 -15.634,-3.041 -23.334,-4.733 -37.018,-8.133 -125.598,-9.407 -167.333,-2.406 -35.19,5.902 -75.113,15.722 -96.667,23.776 -3.3,1.233 -9.456,3.381 -13.681,4.773 -4.224,1.392 -11.124,4.117 -15.333,6.054 -4.209,1.937 -9.752,4.295 -12.319,5.24 -5.607,2.065 -30.529,13.983 -38,18.172 -85.749,48.077 -144.153,101.066 -197.288,178.996 -15.222,22.326 -47.379,81.786 -47.379,87.608 0,0.705 -1.528,4.299 -3.397,7.986 -15.925,31.426 -34.377,109.558 -38.019,160.98 -5.882,83.069 9.036,181.188 36.832,242.25 1.675,3.68 4.274,9.808 5.777,13.619 7.847,19.91 30.47,60.704 48.261,87.025 108,159.7846 291.133,251.367 479.88,239.9824 z m -66.208,-13.3843 c -21.772,-1.0614 -61.911,-6.9578 -81.792,-12.0155 -20.331,-5.1718 -39.06,-10.4933 -51.69,-14.6866 -23.326,-7.7446 -72.31,-29.841 -72.31,-32.6186 0,-2.0372 11.408,-29.6374 18.715,-45.2774 3.083,-6.6 8.764,-19.2 12.625,-28 21.624,-49.29 27.37,-62.006 29.876,-66.118 3.422,-5.613 3.53,-9.46 0.345,-12.342 -3.402,-3.079 -6.555,-2.75 -7.598,0.793 -0.486,1.65 -3.917,9.6 -7.625,17.667 -3.708,8.067 -9.876,21.867 -13.705,30.667 -23.579,54.179 -42.364,94.5973 -44.611,95.986 -8.793,5.4341 -137.356,-95.608 -137.356,-107.953 0,-1.032 4.65,-6.81 10.334,-12.84 42.262,-44.844 76.199,-79.134 79.504,-80.333 2.033,-0.737 2.358,-1.802 1.731,-5.67 -1.114,-6.86 -3.109,-8.892 -6.709,-6.829 -3.463,1.984 -100.332,2.923 -136.86,1.325 l -23.333,-1.02 -7.822,-15.733 c -9.815,-19.741 -19.322,-17.653 78.6,-17.263 96.788,0.387 86.201,2.631 82.65,-17.517 -2.282,-12.952 -1.992,-12.775 -20.986,-12.8 -22.164,-0.03 -23.249,0.826 -15.223,11.998 l 4.553,6.337 -4.886,0.808 c -6.351,1.05 -109.076,0.795 -125.54,-0.312 -14.927,-1.004 -12.733,1.674 -23.634,-28.851 -113.33,-317.352 96.635,-650.835 439.621,-698.24 97.452,-13.469 235.035,15.853 321.334,68.482 76.729,46.794 131.734,98.82 176.604,167.04 93.738,142.518 112.662,333.317 48.22,486.178 -2.587,6.135 -8.005,6.54 -87.589,6.54 -66.447,0 -62.588,0.569 -56.467,-8.329 7.542,-10.965 5.087,-11.92 -29.254,-11.368 -25.36,0.407 -24.05,-0.262 -25.024,12.769 -0.203,2.711 -1.184,6.948 -2.179,9.417 -3.57,8.853 -10.015,8.317 94.888,7.894 110.771,-0.446 103.468,-2.921 83.969,28.467 -3.754,6.043 -27.689,7.355 -110.34,6.046 l -51.837,-0.82 -7.274,-8.038 c -8.426,-9.311 -10.263,-9.797 -12.412,-3.288 -1.316,3.99 -1.226,5.127 0.564,7.105 2.936,3.244 2.679,4.145 -1.182,4.145 -4.419,0 -12.081,6.85 -10.952,9.792 0.714,1.859 3.036,2.208 14.707,2.208 13.859,0 13.859,0 20.326,7 3.557,3.85 20.344,21.4 37.305,39 37.77,39.194 43.26,45.181 43.26,47.177 0,4.501 -48.656,49.16 -77.785,71.395 -15.382,11.741 -57.798,38.0945 -61.313,38.0945 -2.088,0 -38.221,-81.0505 -73.669,-165.2455 -6.788,-16.122 -6.389,-15.603 -12.9,-16.799 -6.452,-1.186 -6.443,-1.094 1.839,17.787 3.761,8.575 8.797,20.391 11.19,26.258 4.176,10.235 11.721,27.685 32.573,75.333 19.453,44.451 21.355,48.857 25.334,58.6665 2.23,5.5 4.057,10.1446 4.06,10.3212 0.01,0.719 -26.887,13.7316 -39.329,19.0274 -52.523,22.3549 -122.293,37.9738 -174,38.9522 l -19.333,0.3659 -0.354,-39.9536 c -0.382,-43.2036 -0.641,-44.6906 -6.441,-37.1079 -3.872,5.0615 -3.872,5.0615 -4.539,41.0615 -0.666,36 -0.666,36 -4,36.1575 -1.833,0.087 -13.026,-0.3151 -24.874,-0.8926 z m 45.088,-107.2571 c 20.67,-28.349 32.634,-55.768 39.216,-89.872 4.36,-22.587 4.489,-22.561 17.386,3.523 10.168,20.565 10.377,20.625 14.032,4.018 4.937,-22.438 3.207,-46.668 -6.164,-86.343 -7.555,-31.987 1.176,-46.522 27.983,-46.581 29.948,-0.07 70.794,36.256 63.607,56.56 -3.987,11.263 -3.213,11.721 18.726,11.083 18.697,-0.543 19.053,-0.363 13.664,6.942 -10.136,13.739 29.602,3.859 51.68,-12.849 15.69,-11.873 30.466,-34.568 25.645,-39.389 -0.373,-0.373 -4.123,0.488 -8.333,1.913 -31.878,10.789 -50.195,2.182 -94.058,-44.198 -17.745,-18.763 -37.714,-39.557 -44.374,-46.208 -19.802,-19.774 -27.992,-47.792 -17.013,-58.198 35.013,-33.185 69.186,-35.344 115.512,-7.3 58.131,35.192 104.455,41.535 131.104,17.953 2.845,-2.518 7.387,-5.913 10.092,-7.545 12,-7.239 27.748,-31.768 27.748,-43.222 0,-7.567 -4.232,-11.649 -22.199,-21.411 -12.723,-6.912 -23.264,-12.866 -40.468,-22.859 -4.033,-2.342 -15.133,-8.779 -24.666,-14.303 -54.775,-31.74 -50.329,-27.3 -49.361,-49.294 l 0.802,-18.239 -11.319,-16.79 c -24.567,-36.441 -45.827,-60.955 -69.456,-80.087 -11.439,-9.263 -11.388,-9.175 -9.893,-17.176 5.182,-27.739 7.05,-94.131 3.249,-115.469 -1.11,-6.233 -2.02,-11.783 -2.021,-12.333 0,-3.433 -5.057,0.714 -15.43,12.666 -30.88,35.583 -74.656,75.44 -81.159,73.895 -36.894,-8.769 -33.659,-6.351 -38.142,-28.511 -4.051,-20.027 -13.879,-66.788 -19.1,-90.875 -4.927,-22.731 -3.317,-23.224 -38.279,11.724 -35.157,35.144 -53.996,60.348 -73.327,98.101 -8.453,16.508 -9.173,17.097 -24.544,20.038 -16.983,3.249 -40.475,3.768 -64.373,1.423 -11.928,-1.17 -22.278,-2.128 -23,-2.128 -4.693,0 2.831,9.17 21.784,26.55 4.271,3.916 7.271,7.569 6.667,8.118 -1.652,1.5 -22.551,7.308 -60.432,16.792 -50.343,12.605 -50.31,11.172 -0.7,29.966 16.295,6.173 16.183,5.825 4.364,13.588 -49.601,32.579 -83.496,62.359 -122.18,107.349 -13.088,15.221 -12.65,15.823 8.078,11.113 65.405,-14.863 59.858,-15.097 49.028,2.069 -33.173,52.585 -53.718,99.882 -69.176,159.245 -8.035,30.86 -8.315,30.311 8.487,16.658 6.691,-5.437 16.951,-13.332 22.799,-17.546 14.98,-10.792 31.012,-21.902 31.604,-21.902 0.276,0 0.497,13.95 0.492,31 0,17.859 0.684,35.521 1.627,41.667 2.99,19.493 11.092,53.172 15.717,65.333 23.361,61.429 25.985,64.408 33.184,37.686 7.054,-26.181 21.802,-66.428 24.296,-66.299 0.576,0.03 3.592,5.28 6.702,11.667 20.043,41.162 58.239,81.898 107.7,114.864 24.09,16.056 24.665,15.993 18.134,-1.996 -3.664,-10.094 -10.197,-43.721 -9.264,-47.689 0.529,-2.252 35.31,26.104 50.866,41.47 21.415,21.153 36.86,47.247 48.162,81.369 3.234,9.764 4.615,9.03 18.294,-9.731 z m -3.201,-35.687 c 1.752,-45.91 -9.286,-87.82 -34.304,-130.253 -23.441,-39.756 -36.042,-67.886 -36.042,-80.455 0,-10.541 25.209,-23.611 50.517,-26.192 14.311,-1.459 14.11,-2.032 3.098,8.798 -10.86,10.682 -16.928,19.724 -19.765,29.454 -3.248,11.141 -2.31,11.999 6.15,5.625 32.514,-24.495 82.672,-26.14 118.557,-3.89 4.785,2.966 3.982,5.192 -1.89,5.24 -1.467,0.01 -6.273,1.727 -10.679,3.811 -21.328,10.09 -27.63,30.573 -18.937,61.541 4.348,15.488 7.903,38.734 7.355,48.097 l -0.406,6.941 -6.667,-9.694 c -16.4,-23.85 -20.853,-24.219 -22.917,-1.901 -3.548,38.375 -12.409,67.471 -28.286,92.891 -6.464,10.347 -6.555,10.188 -5.784,-10.013 z m -21.726,0.01 c -15.084,-27.039 -27.457,-41.125 -60.01,-68.318 -8.769,-7.325 -22.362,-18.875 -30.208,-25.667 -19.159,-16.587 -18.266,-17.258 -15.619,11.741 1.831,20.068 1.45,20.983 -4.371,10.488 -22.426,-40.43 -38.15,-111.46 -40.501,-182.959 -0.667,-20.271 -1.402,-28.906 -2.433,-28.577 -10.556,3.369 -66.321,100.798 -83.543,145.958 -8.504,22.301 -8.615,22.388 -9.746,7.667 -5.06,-65.832 15.159,-146.38 59.304,-236.246 20.262,-41.247 20.387,-39.586 -1.968,-26.169 -49.007,29.415 -89.954,65.706 -128.744,114.105 -19.99,24.942 -20.159,25.062 -16.089,11.42 14.765,-49.489 34.863,-90.368 69.56,-141.483 19.287,-28.416 19.402,-28.298 -18.252,-18.798 -15.51,3.912 -34.219,7.397 -35.083,6.533 -5.325,-5.326 68.118,-67.126 113.746,-95.714 13.151,-8.24 23.866,-15.581 23.812,-16.315 -0.109,-1.465 -1.162,-1.86 -26.808,-10.065 -19.277,-6.167 -20.464,-7.091 -12,-9.333 3.116,-0.826 12.866,-3.512 21.666,-5.968 8.8,-2.456 24.7,-6.635 35.334,-9.287 29.2,-7.28 29.333,-7.322 29.333,-9.221 0,-0.974 -2.55,-3.446 -5.667,-5.493 -21.69,-14.242 -24.23,-17.837 -12,-16.978 4.95,0.347 18.677,-0.333 30.504,-1.512 26.893,-2.68 24.978,-2.748 23.963,0.857 -8.711,30.937 -12.795,54.671 -12.677,73.667 0.143,22.958 3.526,32.186 5.622,15.333 9.491,-76.314 29.434,-123.697 77.443,-184 10.39,-13.051 43.485,-45.889 44.797,-44.45 1.268,1.39 14.635,62.667 24.822,113.784 2.703,13.566 6.178,30.966 7.721,38.666 4.417,22.041 7.148,16.29 7.81,-16.445 0.381,-18.831 -0.691,-18.273 22.274,-11.597 26.115,7.592 52.185,20.079 79.388,38.022 39.532,26.077 57.041,44.203 94.437,97.768 l 7.737,11.082 -1.468,17.298 c -1.945,22.912 2.71,28.342 43.294,50.501 19.245,10.508 52.628,31.021 52.038,31.976 -0.355,0.575 -2.909,1.407 -5.675,1.85 -7.841,1.255 -18.847,7.324 -21.067,11.617 -7.586,14.67 8.173,40.496 23.165,37.963 6.063,-1.024 12.205,14.965 7.216,18.784 -19.367,14.826 -73.002,3.706 -113.677,-23.567 -44.596,-29.903 -77.717,-28.477 -123.131,5.3 -25.994,19.333 -47.56,47.223 -23.951,30.975 l 11.749,-8.086 0.798,9.613 c 1.581,19.019 3.468,22.562 23.407,43.939 8.687,9.314 25.463,27.301 37.279,39.971 48.32,51.81 58.063,58.262 88.104,58.346 13.666,0.04 6.386,9.843 -15.929,21.453 -11.962,6.223 -13.039,6.064 -9.659,-1.429 3.032,-6.726 2.317,-7.409 -5.616,-5.364 -3.511,0.905 -12.834,1.967 -20.718,2.36 l -14.333,0.715 v -5.768 c 0,-15.021 -23.264,-39.536 -66.051,-69.606 -31.471,-22.117 -69.315,-30.686 -102.319,-23.168 -5.703,1.299 -11.046,2.136 -11.872,1.861 -2.392,-0.797 11.511,-10.313 24.763,-16.948 13.598,-6.81 14.199,-8.028 5.137,-10.416 -23.548,-6.206 -54.099,-2.659 -83.479,9.691 -13.254,5.572 23.188,-43.336 44.472,-59.683 16.143,-12.4 -45.187,-3.174 -76.441,11.498 -7.218,3.388 -13.348,6.161 -13.622,6.161 -5.397,0 22.194,-43.795 39.367,-62.488 7.358,-8.01 13.378,-15.011 13.378,-15.56 0,-4.049 -60.69,3.312 -99.666,12.09 -3.856,0.868 -3.836,-1.612 0.05,-6.183 9.12,-10.733 43.594,-51.75 47.218,-56.182 2.346,-2.869 12.741,-14.244 23.1,-25.279 20.967,-22.335 21.285,-23.471 5.519,-19.705 -36.14,8.632 -69.491,10.516 -49.219,2.78 32.097,-12.247 81.669,-45.704 108.671,-73.343 11.51,-11.782 11.536,-13.252 0.09,-4.959 -4.633,3.355 -13.305,9.638 -19.272,13.962 -11.199,8.115 -44.214,29.014 -48.22,30.524 -1.246,0.469 -5.786,2.909 -10.089,5.421 -10.508,6.134 -46.488,22.128 -62.176,27.638 -27.197,9.552 -27.305,9.764 -7.281,14.193 13.867,3.067 51.631,4.347 61.771,2.093 5.349,-1.189 3.695,1.479 -11.708,18.885 -4.812,5.438 -11.756,13.604 -15.432,18.146 -3.676,4.543 -14.498,17.494 -24.049,28.78 -30.355,35.867 -37.904,46.529 -31.634,44.678 24.443,-7.216 90.034,-20.824 100.369,-20.824 3.93,0 3.349,1.388 -5.086,12.152 -12.333,15.737 -23.988,37.711 -33.659,63.456 -8.262,21.996 -8.088,22.215 8.709,11.002 31.328,-20.915 79.982,-37.872 65.762,-22.919 -11.891,12.502 -25.98,38.74 -30.342,56.507 -5.117,20.837 1.111,39.246 30.577,90.387 31.094,53.964 44.291,103.898 37.814,143.081 -1.192,7.215 -2.065,6.496 -10.524,-8.666 z m 208.034,-398.415 c 23.701,-8.382 29.034,-8.453 51.934,-0.685 25.023,8.489 26.106,6.756 4.079,-6.523 -22.605,-13.627 -37.179,-12.566 -65.434,4.761 -18.548,11.374 -16.975,11.783 9.421,2.447 z m -25.321,-22.738 c 5.134,-1.572 10.084,-3.062 11,-3.311 0.917,-0.249 1.667,-1.615 1.667,-3.035 0,-2.684 2.938,-2.803 21.926,-0.884 7.374,0.745 9.727,-0.979 14.178,-10.387 7.13,-15.071 5.071,-22.204 -11.358,-39.336 -11.866,-12.374 -17.952,-16.948 -13.43,-10.093 15.447,23.414 17.995,30.423 15.828,43.532 -0.826,5 -0.826,5 -8.565,5 -11.681,0 -13.559,-1.228 -34.507,-22.566 -24.349,-24.801 -30.187,-28.076 -56.262,-31.553 -28.485,-3.799 -30.875,-1.087 -5.286,5.997 27.767,7.686 50.743,21.845 30.157,18.583 -5.379,-0.852 -8.991,-0.807 -11.063,0.137 -1.692,0.771 -7.549,1.402 -13.014,1.402 -11.791,0 -11.754,-0.09 -3.271,7.877 4.926,4.624 6.667,7.235 6.667,9.996 0,22.549 27.962,37.023 55.333,28.641 z m -228.419,-103.764 c 6.434,-9.585 28.463,-33.855 36.678,-40.41 8.223,-6.561 8.433,-7.675 3.054,-16.158 -2.211,-3.486 -5.798,-9.86 -7.97,-14.164 -6.896,-13.66 -8.885,-9.588 -4.574,9.364 2.712,11.923 3.341,10.593 -11.964,25.285 l -13.196,12.666 0.803,-15.333 c 1.862,-35.55 19.827,-85.544 46.692,-129.936 4.629,-7.648 5.295,-9.958 2.345,-8.135 -3.241,2.003 -29.449,36.38 -29.449,38.628 0,0.409 -3.014,6 -6.697,12.424 -19.964,34.817 -29.301,86.391 -23.057,127.352 0.996,6.539 2.032,6.316 7.335,-1.583 z m -74.247,468.485 c -42.468,-31.995 -86.667,-91.081 -86.667,-115.855 0,-9.192 39.514,-79.74 43.339,-77.377 0.528,0.327 1.381,7.66 1.894,16.296 3.501,58.906 18.449,115.831 43.594,166.014 10.219,20.395 10.245,20.268 -2.16,10.922 z m -140.173,-70.568 c -6.983,-16.406 -15.346,-50.253 -17.79,-72 -2.014,-17.921 -1.651,-46.999 0.837,-66.973 2.937,-23.582 4.018,-23.373 -25.123,-4.869 -17.742,11.265 -21.576,13.119 -18.28,8.842 24.606,-31.942 72.507,-76.792 106.48,-99.7 16.353,-11.026 16.582,-10.86 8.719,6.295 -26.446,57.691 -36.009,87.178 -44.71,137.864 -3.313,19.296 -4.406,30.904 -5.697,60.541 -1.598,36.666 -1.598,36.666 -4.436,30 z m 630.892,-186.334 c -0.995,-2.384 -1.52,-5.85 -1.166,-7.704 0.438,-2.289 -0.226,-4.158 -2.069,-5.825 -2.691,-2.436 -4.141,-2.441 -13.864,-0.05 -6.07,1.49 -14.287,-8.787 -14.287,-17.867 0,-16.451 58.341,-13.909 59.734,2.603 1.137,13.476 -24.057,39.114 -28.348,28.847 z m -214.144,-280.067 c -7.734,-4.546 -21.969,-12.166 -31.635,-16.933 -9.666,-4.766 -17.431,-8.986 -17.257,-9.377 0.174,-0.391 7.217,-6.964 15.65,-14.607 8.433,-7.643 23.705,-22.152 33.937,-32.241 10.232,-10.09 18.932,-18.016 19.333,-17.615 3.545,3.55 -0.988,89.282 -5.151,97.44 -0.554,1.085 -5.338,-1.059 -14.877,-6.667 z m 13.781,471.401 c 5.192,-5.762 4.447,-8.99 -4.36,-18.9 -14.084,-15.846 -18.57,-17.23 -12.811,-3.952 4.561,10.517 6.353,9.809 -25.629,10.115 -15.156,0.145 -28.006,0.295 -28.556,0.334 -1.459,0.101 -1.223,5.162 0.38,8.157 1.304,2.437 3.1,2.579 32.708,2.579 26.618,0 31.444,0.301 32.096,2 1.024,2.667 3.593,2.528 6.172,-0.333 z m -381.69,-3.088 c 0,-2.66 -2.754,-6.579 -4.623,-6.579 -2.105,0 -3.985,4.604 -2.717,6.655 1.109,1.794 7.34,1.73 7.34,-0.08 z m 490,-35.873 c 7.178,-1.657 11.899,-7.276 15.384,-18.313 2.98,-9.434 5.066,-25.726 3.294,-25.726 -0.561,0 -5.033,3.75 -9.938,8.333 -4.905,4.583 -12.018,10.133 -15.808,12.333 -6.953,4.037 -15.433,19.286 -12.955,23.296 1.046,1.692 12.827,1.737 20.023,0.08 z m -30.731,-3.499 c 5.459,-5.459 10.8,-20.588 12.076,-34.207 1.276,-13.612 -0.177,-13.972 -10.666,-2.643 -4.706,5.082 -12.784,12.103 -17.951,15.601 -10.535,7.133 -11.085,8.515 -5.405,13.576 10.066,8.969 17.909,11.711 21.946,7.673 z m 27.93,-32.004 c 0.416,-1.084 -0.134,-2.312 -1.221,-2.73 -4.324,-1.659 -8.481,2.556 -6.811,6.907 0.924,2.408 6.647,-0.569 8.032,-4.177 z m -37.389,-6.129 c 1.115,-1.778 0.543,-3.48 -2.688,-8 -6.662,-9.319 -10.855,-18.696 -18.986,-42.456 -8.847,-25.851 -9.293,-22.636 5.394,-38.827 11.484,-12.659 12.242,-14.556 6.806,-17.033 -3.581,-1.631 -3.944,-1.375 -15.87,11.208 l -12.205,12.877 -6.753,-3.421 c -9.907,-5.021 -14.295,-4.27 -8.012,1.371 8.314,7.466 17.336,25.325 23.836,47.187 8.118,27.299 22.707,46.303 28.478,37.094 z m -539.143,-29.042 c 0,-16.654 0.205,-16.666 -22.416,1.301 -14.309,11.365 -14.181,11.824 3.416,12.288 19.481,0.515 19,0.859 19,-13.589 z m 600.542,10.339 c 3.558,-2.533 4.008,-2.58 5.481,-0.566 3.659,5.004 5.743,1.001 10.076,-19.357 3.289,-15.451 -4.013,-16.701 -17.471,-2.991 -4.745,4.834 -13.014,11.777 -18.374,15.427 -5.361,3.651 -9.514,7.345 -9.23,8.21 1.376,4.189 23.377,3.65 29.518,-0.723 z m 76.574,2.164 c 4.027,-0.833 18.21,-29.468 15.946,-32.195 -3.42,-4.121 -34.307,-2.138 -38.216,2.454 -11.179,13.133 -15.955,17.561 -24.27,22.501 -8.771,5.21 -10.213,6.624 -8.502,8.334 0.856,0.856 50.374,-0.128 55.042,-1.094 z m -123.229,-2.202 c 3.262,-5.021 10.344,-25.998 9.881,-29.265 -0.852,-6.014 -34.435,-5.093 -34.435,0.944 0,18.722 17.602,39.024 24.554,28.321 z m 23.845,-15.633 c 26.807,-17 34.343,-35.522 16.935,-41.617 -17.397,-6.091 -16.311,-6.615 -18.256,8.797 -0.917,7.268 -3.185,17.77 -5.039,23.338 -5.103,15.322 -4.43,16.325 6.36,9.482 z m 54.997,-1.413 c 15.519,-11.464 32.575,-41.319 20.926,-36.629 -1.277,0.514 -7.297,1.263 -13.377,1.663 -12.815,0.844 -12.967,0.997 -13.459,13.52 -0.184,4.679 -1.464,12.135 -2.844,16.568 -3.776,12.134 -2.232,12.994 8.754,4.878 z m -139.412,-4.954 c -0.161,-23.749 -25.27,-54.042 -46.375,-55.951 -13.33,-1.206 -18.8,6.337 -5.99,8.258 16.491,2.473 33.873,18.093 45.8,41.157 4.598,8.892 6.595,10.88 6.565,6.536 z m -555.46,-2.442 c 1.48,-3.857 0.839,-5.891 -1.857,-5.891 -1.467,0 -2.667,0.851 -2.667,1.891 0,2.767 1.459,6.109 2.667,6.109 0.576,0 1.412,-0.949 1.857,-2.109 z m 10.425,-37.745 c 0.521,-0.464 3.391,-7.436 6.376,-15.494 2.986,-8.059 7.302,-19.029 9.592,-24.379 5.328,-12.451 5.762,-12.161 -19.676,-13.159 -45.017,-1.768 -44.641,-2.276 -30.438,41.119 4.231,12.926 24.895,20.135 34.146,11.913 z m 620.684,0.294 c 0.514,-1.546 -22.997,-16.44 -25.951,-16.44 -1.559,0 -13.682,14.088 -13.682,15.9 0,2.452 3.002,2.814 20.481,2.468 12.756,-0.252 18.797,-0.86 19.152,-1.928 z m 138.693,-0.773 c 3.047,-3.85 12.804,-39.082 12.118,-43.758 -0.353,-2.404 -1.492,-1.106 -5.551,6.319 -7.671,14.033 -14.006,21.701 -24.246,29.346 -5.088,3.799 -9.465,7.549 -9.727,8.333 -0.716,2.147 25.7,1.915 27.406,-0.24 z m -726.364,-76.962 c 1.445,-1.445 4.411,-6.095 6.591,-10.333 2.181,-4.238 6.396,-11.305 9.368,-15.705 5.828,-8.628 6.81,-12.668 3.079,-12.666 -2.202,0 -40.875,8.584 -65.666,14.575 -16.658,4.025 -16.529,4.268 -4.971,-9.373 12.154,-14.345 14.352,-17.379 13.54,-18.693 -1.364,-2.208 -44.019,-1.446 -45.9,0.819 -2.35,2.832 0.595,48.245 3.427,52.826 1.705,2.76 77.69,1.392 80.532,-1.45 z m 743.857,0.847 c 2.134,-2.571 4.389,-26.107 3.918,-40.885 l -0.403,-12.667 -50.334,-0.349 c -27.683,-0.193 -50.333,0.164 -50.333,0.793 0,2.372 22.108,15.657 71.333,42.868 4.4,2.433 9.82,5.763 12.043,7.402 6.098,4.493 11.482,5.602 13.776,2.838 z m -735.47,-100.219 c 13.634,-13.2 24.365,-24.438 23.847,-24.973 -1.285,-1.328 -108.357,-1.409 -109.631,-0.08 -0.993,1.033 -4.303,22.259 -6.016,38.571 -1.203,11.463 -2.035,11.21 35.565,10.816 l 31.447,-0.33 z m 737.433,22.695 c 2.129,-2.129 2.115,-2.433 -1.29,-28.596 -2.634,-20.24 -2.527,-20.082 -13.539,-20.173 -123.391,-1.02 -135.245,-0.284 -130.529,8.105 3.56,6.332 3.669,7.116 3.296,23.512 -0.386,16.962 -0.386,16.962 2.947,17.91 7.281,2.071 136.993,1.364 139.115,-0.758 z m -680.932,-70.721 c 5.766,-4.415 13.034,-9.673 16.15,-11.686 9.344,-6.034 11.694,-4.613 -50.666,-30.64 -7.641,-3.189 -7.912,-4.451 -1.334,-6.214 12.151,-3.256 44.625,-11.295 54.666,-13.533 6.05,-1.348 15.65,-3.912 21.334,-5.697 5.683,-1.785 13.934,-3.978 18.334,-4.874 16.093,-3.276 16.092,-3.352 -0.407,-21.193 -23.759,-25.692 -24.049,-26.507 -8.653,-24.315 47.345,6.741 98.458,6.412 109.521,-0.705 1.721,-1.107 5.098,-6.311 7.507,-11.565 13.151,-28.693 37.094,-62.072 66.032,-92.059 16.186,-16.774 51.749,-48.826 54.173,-48.826 2.14,0 2.361,0.781 7.733,27.405 2.507,12.427 6.969,33.995 9.914,47.928 2.945,13.934 6.996,33.134 9.001,42.667 8.943,42.509 41.199,30.349 99.034,-37.333 5.639,-6.6 14.665,-17.85 20.057,-25 5.392,-7.15 10.519,-13 11.394,-13 7.606,0 12.424,97.72 6.837,138.666 l -2.456,18 6.489,5.334 c 14.08,11.57 40.421,39.336 50.546,53.278 18.087,24.908 6.2,22.055 91.884,22.055 84.705,0 76.983,1.438 73.366,-13.668 -20.082,-83.868 -82.268,-172.19 -159.868,-227.058 -236.089,-166.928 -568.083,-51.256 -646.507,225.254 -4.906,17.295 -11.585,15.651 61.751,15.198 l 63.685,-0.393 z m -135.065,461.626 c -14.186,-14.97 -52.451,-70.003 -52.451,-75.434 0,-1.804 23.534,-2.283 88.433,-1.8 31.498,0.234 48.944,0.836 48.663,1.679 -0.682,2.045 -74.314,78.466 -76.975,79.89 -1.887,1.01 -3.433,0.136 -7.67,-4.335 z m 770.015,-25.25 c -42.3,-43.98 -47.8,-49.799 -47.8,-50.571 0,-1.106 100.33,-2.363 119.667,-1.499 9.852,0.44 17.667,1.356 17.667,2.07 0,7.463 -53.397,80.984 -58.817,80.984 -0.504,0 -14.327,-13.943 -30.717,-30.984 z m -665.133,176.9835 c 0,-0.3666 -0.3,-0.6666 -0.667,-0.6666 -0.366,0 -0.666,0.3 -0.666,0.6666 0,0.3667 0.3,0.6667 0.666,0.6667 0.367,0 0.667,-0.3 0.667,-0.6667 z m -60,-42.6665 c 0,-0.367 -0.3,-0.667 -0.667,-0.667 -0.366,0 -0.666,0.3 -0.666,0.667 0,0.367 0.3,0.667 0.666,0.667 0.367,0 0.667,-0.3 0.667,-0.667 z m -40,-35.751 c 0,-0.229 -1.927,-2.179 -4.282,-4.333 -2.356,-2.154 -3.406,-2.716 -2.334,-1.249 2.477,3.388 6.616,6.881 6.616,5.582 z m 781.778,16.862 c 0.489,-0.489 1.289,-0.489 1.777,0 0.489,0.489 0.09,0.889 -0.888,0.889 -0.978,0 -1.378,-0.4 -0.889,-0.889 z m 4.889,-3.778 c 0,-0.366 0.3,-0.666 0.666,-0.666 0.367,0 0.667,0.3 0.667,0.666 0,0.367 -0.3,0.667 -0.667,0.667 -0.366,0 -0.666,-0.3 -0.666,-0.667 z m 56.138,-61.07 c 1.757,-1.689 4.475,-4.839 6.04,-7 1.564,-2.162 3.243,-3.551 3.73,-3.089 0.487,0.463 -0.04,1.77 -1.178,2.905 -1.135,1.135 -2.064,2.594 -2.064,3.242 0,1.243 -7.245,7.012 -8.807,7.012 -0.504,0 0.522,-1.382 2.279,-3.07 z m -893.472,-5.008 c 0,-0.777 0.6,-1.042 1.334,-0.588 0.733,0.453 1.333,1.088 1.333,1.412 0,0.323 -0.6,0.588 -1.333,0.588 -0.734,0 -1.334,-0.636 -1.334,-1.412 z m 906,-10.588 c 0.453,-0.734 1.124,-1.334 1.491,-1.334 0.367,0 0.296,0.6 -0.157,1.334 -0.454,0.733 -1.124,1.333 -1.491,1.333 -0.367,0 -0.296,-0.6 0.157,-1.333 z m 3.334,-4.667 c 0,-0.367 0.3,-0.667 0.666,-0.667 0.367,0 0.667,0.3 0.667,0.667 0,0.367 -0.3,0.667 -0.667,0.667 -0.366,0 -0.666,-0.3 -0.666,-0.667 z m -930.667,-12 c 0,-0.367 0.3,-0.667 0.667,-0.667 0.366,0 0.666,0.3 0.666,0.667 0,0.367 -0.3,0.667 -0.666,0.667 -0.367,0 -0.667,-0.3 -0.667,-0.667 z m -2.667,-4 c 0,-0.367 0.3,-0.667 0.667,-0.667 0.367,0 0.667,0.3 0.667,0.667 0,0.367 -0.3,0.667 -0.667,0.667 -0.367,0 -0.667,-0.3 -0.667,-0.667 z m -9.333,-13.333 c 0,-0.367 0.3,-0.667 0.667,-0.667 0.366,0 0.666,0.3 0.666,0.667 0,0.366 -0.3,0.666 -0.666,0.666 -0.367,0 -0.667,-0.3 -0.667,-0.666 z m -89.943,-251.242 c -0.422,-0.682 -0.157,-1.618 0.588,-2.078 0.745,-0.461 1.355,0.1 1.355,1.241 0,2.342 -0.8,2.687 -1.943,0.837 z m -0.724,-16.092 c 0,-0.978 0.4,-1.378 0.889,-0.889 0.489,0.489 0.489,1.289 0,1.778 -0.489,0.489 -0.889,0.09 -0.889,-0.889 z" id="path172" /></g></g></svg>